<svg width="20" height="20" viewBox="0 0 20 20" fill="none" xmlns="http://www.w3.org/2000/svg">
<path d="M2.02075 1.50391C2.02075 1.22776 1.79689 1.00391 1.52075 1.00391C1.24461 1.00391 1.02075 1.22776 1.02075 1.50391V18.5039C1.02075 18.78 1.24461 19.0039 1.52075 19.0039H18.5208C18.7969 19.0039 19.0208 18.78 19.0208 18.5039C19.0208 18.2278 18.7969 18.0039 18.5208 18.0039H2.02075V1.50391Z" fill="currentColor"/>
<path d="M15.962 4.00772C16.2339 3.95965 16.4933 4.14112 16.5414 4.41305L17.0337 7.1983C17.0818 7.47022 16.9003 7.72963 16.6284 7.7777C16.3564 7.82577 16.097 7.64429 16.049 7.37236L15.7667 5.77576L10.1532 13.8C10.0499 13.9476 9.87525 14.0283 9.69593 14.0112C9.51661 13.994 9.36037 13.8818 9.28692 13.7173L7.26966 9.19933L4.90974 12.5727C4.75145 12.799 4.4397 12.8541 4.21343 12.6958C3.98716 12.5375 3.93205 12.2258 4.09034 11.9995L6.95648 7.9025C7.05974 7.7549 7.23441 7.67425 7.41373 7.69138C7.59305 7.70851 7.74929 7.82077 7.82273 7.98526L9.84 12.5032L14.9473 5.20258L13.3508 5.48479C13.0788 5.53286 12.8194 5.35139 12.7714 5.07946C12.7233 4.80753 12.9048 4.54813 13.1767 4.50006L15.962 4.00772Z" fill="currentColor"/>
</svg>
