<svg width="20" height="20" viewBox="0 0 20 20" fill="none" xmlns="http://www.w3.org/2000/svg">
<path fill-rule="evenodd" clip-rule="evenodd" d="M2 3.69075L2 3.68944C2.00066 2.72842 2.72884 2 3.56656 2H12.8661C13.7042 2 14.4326 2.72908 14.4326 3.69075V7.19797H15.4326V3.69075C15.4326 2.23258 14.3106 1 12.8661 1H3.56656C2.122 1 1 2.23258 1 3.69075L1.00001 3.69353L1.03349 9.70582L1.03349 9.70727C1.03415 10.9915 1.90511 12.1005 3.10004 12.346V13.3914C3.10004 14.3122 4.16385 14.8255 4.88462 14.2524L7.21885 12.3966H7.63391V14.3695C7.63391 15.6805 8.55914 16.7434 9.70047 16.7434H13.4892L15.9418 18.8564C16.3307 19.1915 16.9334 18.9152 16.9334 18.4019V16.7434C18.0747 16.7434 19 15.6805 19 14.3695V9.57215C19 8.26107 18.0747 7.19823 16.9334 7.19823H9.70047C8.55914 7.19823 7.63391 8.26107 7.63391 9.57215V11.3966H7.04431C6.93129 11.3966 6.8216 11.4349 6.73314 11.5052L4.26228 13.4697C4.19675 13.5218 4.10004 13.4751 4.10004 13.3914V11.8966C4.10004 11.6204 3.87619 11.3966 3.60004 11.3966C2.76195 11.3966 2.03349 10.6675 2.0335 9.70582L2 3.69075ZM15.9334 16.7434C15.9334 16.1911 16.3811 15.7434 16.9334 15.7434C17.3967 15.7434 18 15.263 18 14.3695V9.57215C18 8.67864 17.3967 8.19823 16.9334 8.19823H9.70047C9.23713 8.19823 8.63391 8.67864 8.63391 9.57215V14.3695C8.63391 15.263 9.23713 15.7434 9.70047 15.7434H13.4892C13.7287 15.7434 13.9604 15.8294 14.1419 15.9858L15.9334 17.5293V16.7434Z" fill="currentColor"/>
</svg>
