<svg width="20" height="20" viewBox="0 0 20 20" fill="none" xmlns="http://www.w3.org/2000/svg">
<path fill-rule="evenodd" clip-rule="evenodd" d="M10.011 10.4998C11.2552 10.4998 12.2638 9.49246 12.2638 8.24982C12.2638 7.00718 11.2552 5.99982 10.011 5.99982C8.76682 5.99982 7.7582 7.00718 7.7582 8.24982C7.7582 9.49246 8.76682 10.4998 10.011 10.4998ZM10.011 9.49982C10.7041 9.49982 11.2638 8.939 11.2638 8.24982C11.2638 7.56064 10.7041 6.99982 10.011 6.99982C9.31792 6.99982 8.7582 7.56064 8.7582 8.24982C8.7582 8.939 9.31792 9.49982 10.011 9.49982Z" fill="currentColor"/>
<path d="M8.73355 11.243C9.14164 11.135 9.57536 11.0802 10.011 11.0802C10.4467 11.0802 10.8804 11.135 11.2885 11.243C11.6961 11.351 12.0762 11.5116 12.4043 11.7213C12.732 11.9307 13.0091 12.1902 13.2057 12.4935C13.4036 12.799 13.5148 13.1419 13.5148 13.5002C13.5148 13.7763 13.2909 14.0002 13.0148 14.0002C12.7386 14.0002 12.5148 13.7763 12.5148 13.5002C12.5148 13.3542 12.4705 13.1978 12.3665 13.0374C12.2612 12.8748 12.0958 12.711 11.8657 12.5639C11.636 12.417 11.3538 12.2948 11.0325 12.2097C10.7117 12.1248 10.3643 12.0802 10.011 12.0802C9.65775 12.0802 9.31027 12.1248 8.98949 12.2097C8.66827 12.2948 8.38606 12.417 8.15632 12.5639C7.92617 12.711 7.76085 12.8748 7.6555 13.0374C7.55153 13.1978 7.50726 13.3542 7.50726 13.5002C7.50726 13.7763 7.2834 14.0002 7.00726 14.0002C6.73112 14.0002 6.50726 13.7763 6.50726 13.5002C6.50726 13.1419 6.61838 12.799 6.81631 12.4935C7.01287 12.1902 7.29006 11.9307 7.61776 11.7213C7.94587 11.5116 8.32592 11.351 8.73355 11.243Z" fill="currentColor"/>
<path fill-rule="evenodd" clip-rule="evenodd" d="M12.887 1.8V2.97199C13.551 3.23844 14.1688 3.59474 14.7248 4.02563L15.7601 3.4331C16.1415 3.2148 16.6276 3.34504 16.8488 3.72478L18.9107 7.26482C19.1342 7.64867 19.0023 8.14116 18.6167 8.3618L17.5925 8.94797C17.6406 9.29179 17.6655 9.643 17.6655 10C17.6655 10.357 17.6406 10.7082 17.5925 11.0521L18.6167 11.6383C19.0022 11.859 19.1342 12.3514 18.9106 12.7353L16.8487 16.2753C16.6275 16.6551 16.1415 16.7853 15.7601 16.567L14.7247 15.9745C14.1687 16.4053 13.551 16.7616 12.887 17.028V18.2C12.887 18.6418 12.5288 19 12.087 19H7.95257C7.51074 19 7.15257 18.6418 7.15257 18.2V17.028C6.48851 16.7616 5.87082 16.4053 5.31479 15.9745L4.27942 16.567C3.89801 16.7853 3.41193 16.6551 3.19075 16.2753L1.12886 12.7353C0.905292 12.3514 1.03724 11.859 1.42277 11.6383L2.44695 11.0521C2.39877 10.7082 2.37386 10.357 2.37386 10C2.37386 9.643 2.39877 9.29179 2.44695 8.94797L1.42273 8.3618C1.03719 8.14116 0.905237 7.64868 1.1288 7.26483L3.19069 3.72478C3.41187 3.34504 3.89795 3.2148 4.27936 3.4331L5.31467 4.02563C5.8707 3.59474 6.48845 3.23844 7.15257 2.97199V1.8C7.15257 1.35817 7.51075 1 7.95257 1H12.087C12.5288 1 12.887 1.35817 12.887 1.8ZM11.887 3.64824L12.5146 3.90007C13.0916 4.13159 13.6287 4.44131 14.1123 4.81607L14.641 5.22581L16.0846 4.3996L17.9451 7.59398L16.5082 8.41631L16.6021 9.08676C16.6439 9.38473 16.6655 9.68958 16.6655 10C16.6655 10.3104 16.6439 10.6153 16.6021 10.9134L16.5082 11.5838L17.9451 12.4061L16.0845 15.6005L14.6409 14.7743L14.1122 15.184C13.6286 15.5587 13.0916 15.8684 12.5146 16.0999L11.887 16.3518V18H8.15257V16.3518L7.52495 16.0999C6.94795 15.8684 6.4109 15.5587 5.92723 15.184L5.39853 14.7744L3.95497 15.6005L2.0944 12.4061L3.5312 11.5838L3.43728 10.9134C3.39552 10.6153 3.37386 10.3104 3.37386 10C3.37386 9.68958 3.39552 9.38473 3.43728 9.08676L3.53123 8.41632L2.09435 7.59399L3.9549 4.3996L5.39849 5.22581L5.92722 4.81607C6.4108 4.44131 6.94785 4.1316 7.52492 3.90008L8.15257 3.64827V2H11.887V3.64824Z" fill="currentColor"/>
</svg>
