<svg width="20" height="20" viewBox="0 0 20 20" fill="none" xmlns="http://www.w3.org/2000/svg">
<path d="M4.49877 11C4.22263 11 3.99877 11.2239 3.99877 11.5C3.99877 11.7761 4.22263 12 4.49877 12H7.49714C7.77328 12 7.99714 11.7761 7.99714 11.5C7.99714 11.2239 7.77328 11 7.49714 11H4.49877Z" fill="currentColor"/>
<path d="M3.99877 13.5C3.99877 13.2239 4.22263 13 4.49877 13H7.49714C7.77328 13 7.99714 13.2239 7.99714 13.5C7.99714 13.7761 7.77328 14 7.49714 14H4.49877C4.22263 14 3.99877 13.7761 3.99877 13.5Z" fill="currentColor"/>
<path fill-rule="evenodd" clip-rule="evenodd" d="M3.99877 5.4C3.99877 5.17909 4.17786 5 4.39877 5H7.59714C7.81805 5 7.99714 5.17909 7.99714 5.4V8.6C7.99714 8.82091 7.81805 9 7.59714 9H4.39877C4.17786 9 3.99877 8.82091 3.99877 8.6V5.4ZM4.99877 8V6H6.99714V8H4.99877Z" fill="currentColor"/>
<path fill-rule="evenodd" clip-rule="evenodd" d="M14.286 12C15.3901 12 16.2852 11.1046 16.2852 10C16.2852 8.89543 15.3901 8 14.286 8C13.1819 8 12.2868 8.89543 12.2868 10C12.2868 11.1046 13.1819 12 14.286 12ZM14.286 11C14.8375 11 15.2852 10.5527 15.2852 10C15.2852 9.44733 14.8375 9 14.286 9C13.7346 9 13.2868 9.44733 13.2868 10C13.2868 10.5527 13.7346 11 14.286 11Z" fill="currentColor"/>
<path fill-rule="evenodd" clip-rule="evenodd" d="M3.50238 1.00781C2.12167 1.00781 1.00238 2.1271 1.00238 3.50781V16.5078C1.00238 17.8885 2.12167 19.0078 3.50238 19.0078H12.5012C13.8819 19.0078 15.0012 17.8885 15.0012 16.5078V15H15.0275C15.4693 15 15.8274 14.6418 15.8274 14.2V13.9045C16.1845 13.7564 16.5165 13.5585 16.8154 13.3192L17.0394 13.4516C17.4253 13.6799 17.9234 13.5464 18.1436 13.1558L18.8992 11.8152C19.113 11.4359 18.9842 10.9554 18.6095 10.7338L18.3572 10.5845C18.3831 10.3935 18.3965 10.1983 18.3965 10C18.3965 9.80167 18.3831 9.60655 18.3572 9.41554L18.6096 9.26628C18.9843 9.04468 19.113 8.56413 18.8993 8.18488L18.1436 6.84423C17.9235 6.45364 17.4254 6.32021 17.0394 6.54845L16.8155 6.68091C16.5166 6.44152 16.1845 6.24358 15.8274 6.09555V5.8C15.8274 5.35817 15.4693 5 15.0275 5H15.0012V3.50781C15.0012 2.1271 13.8819 1.00781 12.5012 1.00781H3.50238ZM14.0012 5V3.50781C14.0012 2.67939 13.3296 2.00781 12.5012 2.00781H3.50238C2.67395 2.00781 2.00238 2.67939 2.00238 3.50781V16.5078C2.00238 17.3362 2.67395 18.0078 3.50238 18.0078H12.5012C13.3296 18.0078 14.0012 17.3362 14.0012 16.5078V15H13.5446C13.1028 15 12.7446 14.6418 12.7446 14.2V13.9045C12.3876 13.7564 12.0555 13.5585 11.7566 13.3192L11.5326 13.4516C11.1467 13.6799 10.6486 13.5464 10.4284 13.1558L9.67279 11.8152C9.45904 11.4359 9.58776 10.9554 9.96246 10.7338L10.2148 10.5845C10.1889 10.3935 10.1755 10.1983 10.1755 10C10.1755 9.80167 10.1889 9.60655 10.2148 9.41554L9.96245 9.26629C9.58774 9.04468 9.45901 8.56413 9.67276 8.18489L10.4284 6.84423C10.6485 6.45364 11.1467 6.32021 11.5326 6.54845L11.7565 6.68091C12.0555 6.44152 12.3876 6.24358 12.7446 6.09555V5.8C12.7446 5.35817 13.1028 5 13.5446 5H14.0012ZM14.8274 6.76347L15.4444 7.01929C15.7127 7.13053 15.9636 7.27982 16.1904 7.46147L16.7298 7.89341L17.3727 7.51314L17.9319 8.50525L17.2771 8.89251L17.3662 9.54993C17.3861 9.6965 17.3965 9.84673 17.3965 10C17.3965 10.1533 17.3861 10.3035 17.3662 10.4502L17.2771 11.1076L17.9319 11.4948L17.3727 12.4869L16.7298 12.1067L16.1904 12.5385C15.9636 12.7202 15.7127 12.8695 15.4444 12.9807L14.8274 13.2365V14H13.7446V13.2365L13.1276 12.9807C12.8593 12.8695 12.6085 12.7202 12.3816 12.5385L11.8422 12.1067L11.1993 12.4869L10.6401 11.4948L11.2949 11.1076L11.2058 10.4502C11.1859 10.3035 11.1755 10.1533 11.1755 10C11.1755 9.84673 11.1859 9.6965 11.2057 9.54993L11.2949 8.89252L10.6401 8.50526L11.1993 7.51314L11.8422 7.89341L12.3816 7.46147C12.6084 7.27982 12.8593 7.13054 13.1276 7.0193L13.7446 6.76349V6H14.8274V6.76347Z" fill="currentColor"/>
</svg>
